<svg width="30" height="30" xmlns="http://www.w3.org/2000/svg">

 <g>
  <title>background</title>
  <rect fill="none" id="canvas_background" height="402" width="582" y="-1" x="-1"/>
 </g>
 <g>
  <title>Layer 1</title>
  <path id="svg_3" fill="#e80000" d="m14.6,15.9l-6.7,0c-1.5,0 -2.7,1.2 -2.7,2.7l0,1.9c0,1.5 1.2,2.7 2.7,2.7l6.7,0c1.5,0 2.7,-1.2 2.7,-2.7l0,-1.9c0,-1.5 -1.2,-2.7 -2.7,-2.7zm1.2,4.6c0,0.7 -0.5,1.2 -1.2,1.2l-6.7,0c-0.7,0 -1.2,-0.5 -1.2,-1.2l0,-1.9c0,-0.7 0.5,-1.2 1.2,-1.2l6.7,0c0.7,0 1.2,0.5 1.2,1.2l0,1.9zm13.8,-9.6l-1.4,-7.4c-0.1,-0.4 -0.4,-0.6 -0.7,-0.6l-25,0c-0.4,0 -0.7,0.3 -0.7,0.6l-1.2,6.1c-0.2,0.5 -0.3,1 -0.3,1.5c0,1.5 0.8,2.9 2.1,3.6l0,10.3c0,1.2 1,2.2 2.2,2.2l14,0c0.4,0 0.8,-0.3 0.8,-0.8c0,0 0,0 0,-0.1c0,0 0,0 0,-0.1l0,-9l4,0l0,9c0,0 0,0 0,0.1c0,0 0,0 0,0.1c0,0.4 0.3,0.8 0.8,0.8l1.4,0c1.2,0 2.2,-1 2.2,-2.2l0,-10.5c1.1,-0.7 1.8,-1.9 1.9,-3.2c0,-0.1 0,-0.3 -0.1,-0.4zm-3.4,14c0,0.4 -0.3,0.7 -0.7,0.7l-0.7,0l0,-9.1c0,-0.4 -0.3,-0.8 -0.8,-0.8l-5.5,0c-0.4,0 -0.8,0.3 -0.8,0.8l0,9.1l-13.1,0c-0.4,0 -0.7,-0.3 -0.7,-0.7l0,-9.7c0.2,0 0.4,0.1 0.6,0.1c1.4,0 2.7,-0.7 3.5,-1.8c0.8,1.1 2,1.8 3.5,1.8s2.7,-0.7 3.5,-1.8c0.8,1.1 2,1.8 3.5,1.8s2.7,-0.7 3.5,-1.8c0.8,1.1 2,1.8 3.5,1.8c0.3,0 0.6,0 0.8,-0.1l0,9.7l-0.1,0zm1.9,-13.9c0,1.5 -1.2,2.7 -2.7,2.7s-2.7,-1.2 -2.7,-2.7c0,-0.4 -0.3,-0.8 -0.8,-0.8s-0.8,0.3 -0.8,0.8c0,1.5 -1.2,2.7 -2.7,2.7s-2.7,-1.2 -2.7,-2.7c0,-0.4 -0.3,-0.8 -0.8,-0.8s-0.8,0.3 -0.8,0.8c0,1.5 -1.2,2.7 -2.7,2.7c-1.5,0 -2.7,-1.2 -2.7,-2.7c0,-0.4 -0.3,-0.8 -0.8,-0.8s-0.6,0.4 -0.6,0.8c0,1.5 -1.2,2.7 -2.7,2.7c-1.5,0 -2.7,-1.2 -2.7,-2.7c0,-0.3 0.1,-0.7 0.2,-1c0,0 0,-0.1 0,-0.1l1.1,-5.5l23.8,0l1.2,6.5c-0.1,0.1 -0.1,0.1 -0.1,0.1z"/>
 </g>
</svg>